<svg width="606" height="278" viewBox="0 0 606 278" version="1.1" xmlns="http://www.w3.org/2000/svg" xmlns:xlink="http://www.w3.org/1999/xlink" xmlns:figma="http://www.figma.com/figma/ns">
<title>soundcloud-pink</title>
<desc>Created using Figma</desc>
<g id="Canvas" transform="translate(281 167)" figma:type="canvas">
<g id="soundcloud-pink" figma:type="frame">
<g id="Vector" figma:type="vector">
<use xlink:href="#path0_fill" transform="translate(-281 -167)" fill="#EA91BD"/>
</g>
</g>
</g>
<defs>
<path id="path0_fill" d="M 176.75 277.974L 151.5 277.974L 151.5 74.0928C 159.277 68.2553 167.635 63.2518 176.75 59.7897L 176.75 277.974ZM 252.5 277.974L 277.75 277.974L 277.75 44.8802C 271.968 51.5769 266.564 58.7284 262.07 66.5369L 252.5 61.8872L 252.5 277.974ZM 202 277.974L 227.25 277.974L 227.25 54.3819C 214.423 52.3855 211.519 53.1184 202 54.1292L 202 277.974ZM 101 277.974L 126.25 277.974L 126.25 100.576C 118.372 112.15 112.236 125.114 108.777 139.366L 101 134.767L 101 277.974ZM 25.25 145.305C 9.9485 159.128 0 179.521 0 202.618C 0 225.715 9.9485 246.108 25.25 259.931L 25.25 145.305L 25.25 145.305ZM 501.945 128.348C 496.794 56.6562 441.244 3.27756e-06 372.741 3.27756e-06C 346.935 3.27756e-06 323.149 8.28868 303 22.1621L 303 277.974L 532.497 277.974C 573.074 277.974 606 242.773 606 199.484C 606 143.056 551.258 104.164 501.945 128.348L 501.945 128.348ZM 75.75 127.666C 68.1245 127.059 62.4685 126.908 50.5 130.749L 50.5 274.512C 61.7615 278.126 66.559 277.999 75.75 277.999L 75.75 127.666Z"/>
</defs>
</svg>
